# xmcd CD database file
#
# Track frame offsets:
#	150
#	12563
#	25988
#	41012
#	55912
#	69757
#	85158
#	99728
#	113714
#	126866
#	139863
#	152084
#	165881
#	178016
#	190137
#	201609
#	214196
#	228226
#	243420
#	257424
#	270307
#	285023
#	298288
#	310864
#	324571
#	339546
#
# Disc length: 4707 seconds
#
# Revision: 0
# Processed by: cddbd v1.4PL0 Copyright (c) Steve Scherf et al.
# Submitted via: CDex 1.50
#
DISCID=7312611a
DTITLE=Django Reinhardt - Django Reinhardt And His American Friends 1
DYEAR=2000
DGENRE=Jazz
TTITLE0=I Saw Stars
TTITLE1=The Continental
TTITLE2=Un Baiser
TTITLE3=Blue Moon
TTITLE4=Avalon
TTITLE5=What A Difference A Day Made
TTITLE6=Stardust
TTITLE7=Swanee River
TTITLE8=Avalon
TTITLE9=Smoke Rings
TTITLE10=I've Found A New Baby
TTITLE11=St. Louis Blues
TTITLE12=Run Mary, Run - Didn't It Rain
TTITLE13=Rosetta
TTITLE14=Stardust
TTITLE15=The Object Of My Affection
TTITLE16=I'se A Muggin'
TTITLE17=I Can't Give You Anything But Love
TTITLE18=After You've Gone
TTITLE19=Nagasaki
TTITLE20=Georgia On My Mind
TTITLE21=Shine
TTITLE22=Honeysuckle Rose
TTITLE23=Crazy Rythm
TTITLE24=Out Of Nowhere
TTITLE25=Sweet Georgia Brown
EXTD=YEAR: 2000
EXTT0=
EXTT1=
EXTT2=
EXTT3=
EXTT4=
EXTT5=
EXTT6=
EXTT7=
EXTT8=
EXTT9=
EXTT10=
EXTT11=
EXTT12=
EXTT13=
EXTT14=
EXTT15=
EXTT16=
EXTT17=
EXTT18=
EXTT19=
EXTT20=
EXTT21=
EXTT22=
EXTT23=
EXTT24=
EXTT25=
PLAYORDER=
